<svg xmlns="http://www.w3.org/2000/svg" xmlns:xlink="http://www.w3.org/1999/xlink" width="500" zoomAndPan="magnify" viewBox="0 0 375 374.999991" height="500" preserveAspectRatio="xMidYMid meet" version="1.2"><g id="8a912ade40"><rect x="0" width="375" y="0" height="374.999991" style="fill:#ffffff;fill-opacity:1;stroke:none;"/><rect x="0" width="375" y="0" height="374.999991" style="fill:#ffffff;fill-opacity:1;stroke:none;"/><path style=" stroke:none;fill-rule:nonzero;fill:#f05524;fill-opacity:1;" d="M 74.945312 301.984375 C 87.039062 307.082031 98.71875 311.371094 109.816406 314.972656 C 108.824219 280.191406 111.847656 235.3125 124.304688 201.097656 C 150.097656 240.472656 160.894531 287.316406 162.289062 333.929688 C 207.675781 332.304688 262.652344 318.933594 312.519531 295.140625 C 317.597656 195.902344 269.839844 95.734375 186.289062 41.0625 C 186.289062 41.0625 157.101562 59.652344 144.164062 75.527344 C 201.421875 105.605469 257.695312 181.832031 260.78125 262.292969 C 238.683594 271.363281 225.453125 275.601562 208.367188 279.683594 C 198.320312 213.636719 161.675781 156.230469 115.023438 109.65625 C 75.671875 162.832031 57.375 229.214844 60.058594 295.140625 L 74.945312 301.984375 "/></g></svg>