<svg xmlns="http://www.w3.org/2000/svg" xmlns:xlink="http://www.w3.org/1999/xlink" width="500" zoomAndPan="magnify" viewBox="0 0 375 374.999991" height="500" preserveAspectRatio="xMidYMid meet" version="1.2"><g id="f74db34c03"><rect x="0" width="375" y="0" height="374.999991" style="fill:#ffffff;fill-opacity:1;stroke:none;"/><rect x="0" width="375" y="0" height="374.999991" style="fill:#ffffff;fill-opacity:1;stroke:none;"/><path style=" stroke:none;fill-rule:nonzero;fill:#f05524;fill-opacity:1;" d="M 300.046875 73.007812 C 287.949219 67.910156 276.273438 63.621094 265.175781 60.019531 C 266.164062 94.800781 263.140625 139.679688 250.683594 173.894531 C 224.894531 134.519531 214.097656 87.675781 212.699219 41.0625 C 167.316406 42.683594 112.339844 56.058594 62.472656 79.851562 C 57.394531 179.089844 105.152344 279.257812 188.703125 333.929688 C 188.703125 333.929688 217.890625 315.339844 230.828125 299.464844 C 173.566406 269.386719 117.292969 193.15625 114.210938 112.699219 C 136.304688 103.628906 149.539062 99.390625 166.625 95.308594 C 176.667969 161.355469 213.3125 218.761719 259.96875 265.332031 C 299.320312 212.160156 317.617188 145.777344 314.929688 79.851562 L 300.046875 73.007812 "/></g></svg>